PathFileType	4	(X/Y/Z)	C:\Users\Basilio\Documents\Thesis Gigler\squatting_fais\c3dfiles\054\SJ_pre1\markers_experimental.trc
DataRate	CameraRate	NumFrames	NumMarkers	Units	OrigDataRate	OrigDataStartFrame	OrigNumFrames
200.000000	200.000000	4	61	mm	200.000000	1230	1968
Frame#	Time	FHD			LBHD			RBHD			C7			T10			CLAV			LSHO			LUUPA			LMUPA			LDUPA			LLEP			LMEP			LRAD			LUL			LRFIN			RSHO			RUPA1			RMUPA			RDUPA			RLEP			RMEP			RRAD			RUL			RUFIN			LASI			RASI			USACR			LSACR			RSACR			LTHI1			LTHI2			LTHI3			LTHI4			LLFC			LMFC			LTIB1			LTIB2			LTIB3			LTIB4			LLMAL			LMMAL			LHEE			LMT1			LMT2			LMT5			RTHI			RTHI2			RTHI3			RTHI4			RLFC			RMFC			RTIB1			RTIB2			RTIB3			RTIB4			RLMAL			RMMAL			RHEE			RMT1			RMT2			RMT5			
		X1	Y1	Z1	X2	Y2	Z2	X3	Y3	Z3	X4	Y4	Z4	X5	Y5	Z5	X6	Y6	Z6	X7	Y7	Z7	X8	Y8	Z8	X9	Y9	Z9	X10	Y10	Z10	X11	Y11	Z11	X12	Y12	Z12	X13	Y13	Z13	X14	Y14	Z14	X15	Y15	Z15	X16	Y16	Z16	X17	Y17	Z17	X18	Y18	Z18	X19	Y19	Z19	X20	Y20	Z20	X21	Y21	Z21	X22	Y22	Z22	X23	Y23	Z23	X24	Y24	Z24	X25	Y25	Z25	X26	Y26	Z26	X27	Y27	Z27	X28	Y28	Z28	X29	Y29	Z29	X30	Y30	Z30	X31	Y31	Z31	X32	Y32	Z32	X33	Y33	Z33	X34	Y34	Z34	X35	Y35	Z35	X36	Y36	Z36	X37	Y37	Z37	X38	Y38	Z38	X39	Y39	Z39	X40	Y40	Z40	X41	Y41	Z41	X42	Y42	Z42	X43	Y43	Z43	X44	Y44	Z44	X45	Y45	Z45	X46	Y46	Z46	X47	Y47	Z47	X48	Y48	Z48	X49	Y49	Z49	X50	Y50	Z50	X51	Y51	Z51	X52	Y52	Z52	X53	Y53	Z53	X54	Y54	Z54	X55	Y55	Z55	X56	Y56	Z56	X57	Y57	Z57	X58	Y58	Z58	X59	Y59	Z59	X60	Y60	Z60	X61	Y61	Z61	

1231	6.15	147.7522277832032	1114.314086914063	-899.6560058593752	-19.68973350524903	1080.706909179688	-972.9101562500002	-36.39825820922852	1077.942749023438	-834.1291503906252	-89.62926483154298	1004.700317382813	-893.3359375000002	-380.7005920410157	844.3452758789065	-930.3753662109377	-37.62377166748048	850.6558837890627	-901.9305419921877	-8.116486549377443	922.301208496094	-1052.94482421875	-135.5526885986328	925.5125732421877	-1246.138916015625	-147.2055053710938	876.3403930664065	-1255.399047851563	-181.7716369628907	903.9112548828127	-1295.492553710938	-233.9522399902344	867.0068359375002	-1321.025756835938	-290.0768432617188	926.942077636719	-1285.739624023438	-427.5478820800782	758.9655761718751	-1170.084594726563	-428.1146240234376	698.3360595703126	-1215.56640625	-386.3124389648439	725.3848876953126	-1129.592407226563	-19.89510154724121	906.3452148437502	-740.2402343750001	-182.82666015625	898.3345336914065	-566.7360229492189	-204.1251373291016	854.3204345703127	-563.9190673828126	-242.6555175781251	886.8300781250002	-529.3994750976564	-291.6776428222657	868.4580078125002	-518.7352905273439	-330.0709228515626	929.7894287109377	-567.9039916992189	-467.4172668457032	767.1253662109376	-711.2996826171876	-463.4117126464845	704.9383544921876	-662.7088012695314	-414.9060668945314	736.6070556640626	-742.0068359375001	-383.5198059082032	634.5250854492189	-1055.8701171875	-382.4565734863282	633.9432373046876	-801.3581542968752	-469.8625488281251	793.225524902344	-934.187438964844	-498.2950134277345	776.436706542969	-962.2822875976565	-501.3654785156251	777.8890380859377	-905.092956542969	-434.3266906738282	564.3225708007814	-1197.995361328125	-353.3004760742188	556.0982055664064	-1223.254028320313	-328.6641235351563	594.2871093750001	-1209.594970703125	-321.8931579589844	505.9882812500001	-1234.66259765625	-202.7222137451172	439.1519470214845	-1257.993041992188	-139.7392120361328	428.2954406738282	-1134.513427734375	-211.4790954589844	282.1207580566407	-1216.661499023438	-291.2434387207032	268.5144653320313	-1255.50048828125	-254.7079315185547	248.7939605712891	-1238.6474609375	-287.8803710937501	182.4249877929688	-1197.847534179688	-413.0826416015626	90.02854919433595	-1214.857177734375	-354.1755371093751	97.71662902832034	-1135.099853515625	-468.1130676269532	52.8832130432129	-1141.57177734375	-252.6303100585938	52.8629722595215	-1198.938354492188	-263.3193664550782	56.50896072387697	-1247.39208984375	-328.6998901367188	36.02161026000977	-1282.19189453125	-392.2161254882814	536.2633056640626	-644.1449584960939	-327.2384643554688	544.9109497070314	-625.4345092773439	-307.8118591308594	571.5037841796876	-631.6646118164064	-274.0363769531251	481.6510314941407	-610.1989135742189	-226.6585845947266	438.3548583984376	-594.1855468750001	-149.2317047119141	440.9085083007814	-711.0117797851564	-209.1167297363282	332.9336242675782	-592.4801025390626	-315.4815673828126	303.1908264160157	-591.4089965820314	-276.5903930664063	276.8755798339844	-591.2141113281251	-281.7912292480469	227.1404266357422	-618.6013183593751	-413.3409118652345	93.32649993896486	-632.6884155273439	-355.5102844238282	99.93936920166018	-706.8230590820314	-467.6768493652345	51.48094558715822	-703.6391601562501	-247.3380432128907	50.69434738159181	-649.8842163085939	-260.8225097656251	54.7324905395508	-604.2247924804689	-319.8528747558594	34.27202224731446	-569.1873779296876	
1232	6.155	147.9736938476563	1113.594482421875	-899.9229736328127	-18.92998504638672	1079.94287109375	-973.0471801757815	-36.21747589111329	1077.455200195313	-834.3168945312502	-89.42046356201173	1004.184997558594	-893.4343872070315	-380.5961914062501	843.8854980468752	-930.480163574219	-37.59313583374024	849.9655761718752	-902.056091308594	-8.073731422424318	921.5928344726565	-1053.065063476563	-135.2322235107422	924.8714599609377	-1246.298706054688	-147.1373596191407	875.6826171875002	-1255.561279296875	-181.7201538085938	903.3166503906252	-1295.673706054688	-233.8565063476563	866.527770996094	-1321.145385742188	-289.8667907714844	926.2285156250002	-1285.82080078125	-427.6253356933595	758.6029663085939	-1170.196044921875	-428.1818237304689	697.8211059570314	-1215.65576171875	-386.332489013672	725.0999145507814	-1129.900756835938	-19.78543853759766	905.5474243164065	-740.4367065429689	-182.5815124511719	897.729187011719	-566.9161376953126	-203.9179840087891	853.8419189453127	-564.0650634765626	-242.4381408691407	886.3270263671877	-529.5535888671876	-291.4574890136719	868.0657348632815	-518.9105834960939	-330.0057373046876	929.497985839844	-567.9191894531251	-467.2866516113282	766.6705932617189	-711.4495849609376	-463.4709472656251	704.5485229492189	-662.8078002929689	-414.618621826172	736.3624267578126	-741.9315795898439	-383.2074584960938	633.6809692382814	-1055.224487304688	-382.5260314941407	634.0100708007814	-800.7570800781252	-469.7716369628907	792.7607421875002	-934.3377685546877	-498.1843872070314	775.9666137695315	-962.3001098632815	-501.2994079589845	777.5343017578127	-905.2407226562502	-434.3342895507814	564.0470581054689	-1198.04833984375	-353.4591674804688	555.8856201171876	-1223.489013671875	-328.6965332031251	594.0570678710939	-1209.707641601563	-321.8462219238282	505.7664184570314	-1234.785400390625	-202.5635223388672	439.0345458984376	-1258.203369140625	-139.727294921875	428.1661071777345	-1134.779174804688	-211.4066619873047	282.1622314453126	-1216.814208984375	-291.2427062988282	268.4135131835938	-1255.594970703125	-254.6884918212891	248.7243804931641	-1238.717651367188	-287.8367614746094	182.3731384277344	-1197.877197265625	-413.027557373047	90.02353668212892	-1214.858032226563	-354.1567382812501	97.70314025878909	-1135.15478515625	-468.0890197753907	52.84686660766603	-1141.5869140625	-252.6241760253907	52.85858154296876	-1198.932373046875	-263.3050842285157	56.65336227416994	-1247.39013671875	-328.6880187988282	36.02035903930665	-1282.18994140625	-392.2242431640626	536.0414428710939	-644.0900268554689	-327.3629150390626	544.8217773437501	-625.1388549804689	-307.9091796875001	571.3043823242189	-631.6890869140626	-274.0396423339844	481.5012817382814	-610.1795043945314	-226.5644073486329	438.3211059570314	-594.1301879882814	-149.2960052490235	440.7649536132814	-710.9621582031251	-209.0457458496094	332.9187622070313	-592.3918457031251	-315.4525451660157	303.1467590332032	-591.3557128906251	-276.5661621093751	276.8394775390626	-591.1433105468751	-281.7489624023438	227.0895538330079	-618.5992431640626	-413.340057373047	93.33889770507814	-632.7224731445314	-355.4644775390626	99.93768310546878	-706.8568115234376	-467.6458435058595	51.49382781982423	-703.6542358398439	-247.3125152587891	50.68482208251955	-649.9050292968751	-260.8279724121094	54.73715972900392	-604.2262573242189	-319.8513793945313	34.28422164916993	-569.1853027343751	
1233	6.16	148.2150421142578	1112.965209960938	-900.1116333007815	-18.76748657226563	1079.378173828125	-973.2302856445315	-36.05355072021485	1076.843994140625	-834.523620605469	-89.36931610107423	1003.507446289063	-893.592224121094	-380.5581665039063	843.4585571289065	-930.6045532226565	-37.46197128295899	849.2437133789065	-902.2269287109377	-7.962247848510744	920.963317871094	-1053.22216796875	-134.972885131836	924.252868652344	-1246.576171875	-146.9844665527344	875.0444946289065	-1255.73486328125	-181.6734771728516	902.7779541015627	-1295.817016601563	-233.7130584716797	865.8778076171877	-1321.229370117188	-289.6719360351563	925.6132812500002	-1286.090698242188	-427.5975036621095	758.2894287109376	-1170.33447265625	-428.229217529297	697.3511352539064	-1215.755737304688	-386.297332763672	724.6271362304689	-1130.106689453125	-19.89717483520508	904.7924804687502	-740.4553222656251	-182.4517517089844	897.3450317382815	-567.0362548828126	-203.8170928955079	853.2061157226565	-564.1783447265626	-242.2991333007813	885.8803710937502	-529.6884155273439	-291.4089660644532	867.440856933594	-519.0750732421876	-329.7778015136719	928.9920654296877	-568.1387939453126	-467.259002685547	766.1938476562501	-711.5711059570314	-463.3460693359376	704.1649780273439	-662.9539184570314	-414.590789794922	735.7037963867189	-742.0866088867189	-383.5668640136719	633.1091918945314	-1055.065551757813	-382.4181823730469	633.9141845703126	-800.666442871094	-469.9058227539064	792.4891357421877	-934.3894042968752	-498.2081604003907	775.4541625976565	-962.3880004882815	-501.3145141601564	777.2253417968752	-905.304382324219	-434.3445739746095	563.6114501953126	-1197.898193359375	-353.3808288574219	555.5980224609376	-1223.550048828125	-328.5574645996094	593.8330078125001	-1209.895874023438	-321.8429870605469	505.5104980468751	-1234.879516601563	-202.5473937988282	438.8887939453126	-1258.438232421875	-139.5635375976563	427.9928588867189	-1134.893432617188	-211.3565826416016	282.1383056640626	-1216.937866210938	-291.1398315429688	268.3670959472657	-1255.663208007813	-254.7278289794922	248.5981903076172	-1238.817749023438	-287.8143615722657	182.2715911865235	-1197.9951171875	-413.0470275878907	90.02560424804689	-1214.8701171875	-354.1639709472657	97.72048187255862	-1135.168579101563	-468.1701049804689	52.85738754272462	-1141.570678710938	-252.6194305419922	52.87574768066408	-1198.956420898438	-263.3262023925782	56.44086074829103	-1247.428588867188	-328.7095642089844	36.01760482788087	-1282.1943359375	-392.3062438964845	535.8277587890626	-644.0784912109376	-327.3916625976563	544.6555786132814	-625.1601562500001	-307.9386596679688	571.1369628906251	-631.7095947265626	-274.0023193359376	481.4116821289064	-610.0853881835939	-226.5444793701172	438.2757568359376	-594.0579833984376	-149.0169677734375	440.8839111328126	-710.8344116210939	-209.007797241211	332.8791198730469	-592.3547973632814	-315.4046936035157	303.1326599121094	-591.3298339843751	-276.5413208007813	276.7850341796876	-591.1076660156251	-281.7202758789063	227.0849609375001	-618.5936889648439	-413.3294372558595	93.34887695312501	-632.7263793945314	-355.5014343261719	99.94756317138675	-706.8596801757814	-467.6611633300782	51.52307128906251	-703.6453247070314	-247.3121337890626	50.71067047119142	-649.9179077148439	-260.8358154296876	54.74120712280275	-604.2390747070314	-319.8395690917969	34.27151107788087	-569.1764526367189	
1234	6.165	148.676498413086	1112.176879882813	-900.4492797851565	-17.19366645812989	1078.861572265625	-973.543151855469	-35.88380813598634	1076.084350585938	-834.7490844726565	-89.45235443115236	1002.996276855469	-893.7824707031252	-380.5250244140626	843.049011230469	-930.800476074219	-37.33483886718751	848.780212402344	-902.3497314453127	-7.868340015411379	920.3127441406252	-1053.36376953125	-136.704086303711	923.1443481445315	-1245.834350585938	-147.0213317871094	874.3499755859377	-1255.931884765625	-181.8588256835938	902.0319824218752	-1295.808837890625	-233.7142639160157	865.261169433594	-1321.35791015625	-289.3676452636719	925.218200683594	-1286.276245117188	-427.6287841796876	757.7772216796876	-1170.447021484375	-428.2211303710939	696.9213867187501	-1215.976440429688	-386.3386230468751	724.1600341796876	-1130.26611328125	-19.73112106323243	904.3256835937502	-740.6602783203126	-182.2529907226563	896.697204589844	-567.0883789062501	-203.5996551513672	852.6248779296877	-564.4052734375001	-242.2717742919922	885.3321533203127	-529.9035644531251	-291.2206115722657	866.898376464844	-519.2239990234376	-329.8280334472657	928.5765380859377	-568.1990966796876	-467.3471679687501	765.9483642578126	-711.5554809570314	-463.3207092285157	703.7697753906251	-663.0660400390626	-414.7518615722657	735.2813110351564	-742.2835693359376	-382.0502624511719	633.7028198242189	-1055.594970703125	-381.2393188476563	633.9287719726564	-801.1053466796877	-469.863739013672	792.0362548828127	-934.5447387695315	-497.8177185058595	774.9155273437502	-962.5959472656252	-501.2291870117189	776.8808593750002	-905.392272949219	-434.3260192871095	563.2216796875001	-1198.054931640625	-353.4729614257813	555.3878784179689	-1223.776123046875	-328.6883850097657	593.6577148437501	-1210.051513671875	-321.8729858398438	505.2739868164064	-1235.0625	-202.4353027343751	438.8411560058595	-1258.69140625	-139.4761505126953	427.9602050781251	-1134.9755859375	-211.3624877929688	282.0723571777344	-1217.079345703125	-291.1875305175782	268.3464050292969	-1255.770263671875	-254.6971130371094	248.5361633300782	-1238.892211914063	-287.7536926269532	182.2492065429688	-1198.018188476563	-413.0177612304689	90.00481414794923	-1214.873779296875	-354.1531982421876	97.7190856933594	-1135.175048828125	-468.1336059570314	52.87818145751955	-1141.595581054688	-252.6177825927735	52.872371673584	-1198.96240234375	-263.3063964843751	56.44816970825197	-1247.423095703125	-328.6892089843751	35.98985671997071	-1282.227661132813	-392.2956542968751	535.6673583984376	-644.0639648437501	-327.4007873535157	544.4049682617189	-625.1603393554689	-307.8677978515626	570.9771118164064	-631.7803344726564	-273.9635009765626	481.3329162597657	-610.0596923828126	-226.3861999511719	438.2304992675782	-594.0406494140626	-148.9948120117188	440.833221435547	-710.7930297851564	-208.9495544433594	332.8592224121094	-592.2993774414064	-315.4002685546876	303.1176757812501	-591.2732543945314	-276.4918823242188	276.7073669433594	-591.1215209960939	-281.6468505859376	227.078109741211	-618.5414428710939	-413.3257751464845	93.3617630004883	-632.7244873046876	-355.4231567382813	99.984245300293	-706.8691406250001	-467.6406555175782	51.50376129150392	-703.7103271484376	-247.295394897461	50.71704483032228	-649.9110107421876	-260.8406677246094	54.72773361206056	-604.2401733398439	-319.8253784179688	34.26628875732423	-569.2056884765626	
